<svg width="22" height="28" viewBox="0 0 22 28" fill="none" xmlns="http://www.w3.org/2000/svg">
<path d="M18.875 3.5H14.5C14.5 1.56953 12.9305 0 11 0C9.06953 0 7.5 1.56953 7.5 3.5H3.125C1.67578 3.5 0.5 4.67578 0.5 6.125V25.375C0.5 26.8242 1.67578 28 3.125 28H18.875C20.3242 28 21.5 26.8242 21.5 25.375V6.125C21.5 4.67578 20.3242 3.5 18.875 3.5ZM5.75 23.1875C5.02266 23.1875 4.4375 22.6023 4.4375 21.875C4.4375 21.1477 5.02266 20.5625 5.75 20.5625C6.47734 20.5625 7.0625 21.1477 7.0625 21.875C7.0625 22.6023 6.47734 23.1875 5.75 23.1875ZM5.75 17.9375C5.02266 17.9375 4.4375 17.3523 4.4375 16.625C4.4375 15.8977 5.02266 15.3125 5.75 15.3125C6.47734 15.3125 7.0625 15.8977 7.0625 16.625C7.0625 17.3523 6.47734 17.9375 5.75 17.9375ZM5.75 12.6875C5.02266 12.6875 4.4375 12.1023 4.4375 11.375C4.4375 10.6477 5.02266 10.0625 5.75 10.0625C6.47734 10.0625 7.0625 10.6477 7.0625 11.375C7.0625 12.1023 6.47734 12.6875 5.75 12.6875ZM11 2.1875C11.7273 2.1875 12.3125 2.77266 12.3125 3.5C12.3125 4.22734 11.7273 4.8125 11 4.8125C10.2727 4.8125 9.6875 4.22734 9.6875 3.5C9.6875 2.77266 10.2727 2.1875 11 2.1875ZM18 22.3125C18 22.5531 17.8031 22.75 17.5625 22.75H9.6875C9.44687 22.75 9.25 22.5531 9.25 22.3125V21.4375C9.25 21.1969 9.44687 21 9.6875 21H17.5625C17.8031 21 18 21.1969 18 21.4375V22.3125ZM18 17.0625C18 17.3031 17.8031 17.5 17.5625 17.5H9.6875C9.44687 17.5 9.25 17.3031 9.25 17.0625V16.1875C9.25 15.9469 9.44687 15.75 9.6875 15.75H17.5625C17.8031 15.75 18 15.9469 18 16.1875V17.0625ZM18 11.8125C18 12.0531 17.8031 12.25 17.5625 12.25H9.6875C9.44687 12.25 9.25 12.0531 9.25 11.8125V10.9375C9.25 10.6969 9.44687 10.5 9.6875 10.5H17.5625C17.8031 10.5 18 10.6969 18 10.9375V11.8125Z" fill="#21B2B6"/>
</svg>
