<svg width="28" height="24" viewBox="0 0 28 24" fill="none" xmlns="http://www.w3.org/2000/svg">
<path d="M0 12V17.6C0 18.3744 0.625625 19 1.4 19H2.8V10.6H1.4C0.625625 10.6 0 11.2257 0 12ZM20.3 5.00005H15.4V2.20005C15.4 1.42567 14.7744 0.800049 14 0.800049C13.2256 0.800049 12.6 1.42567 12.6 2.20005V5.00005H7.7C5.76625 5.00005 4.2 6.5663 4.2 8.50005V20.4C4.2 21.9444 5.45563 23.2 7 23.2H21C22.5444 23.2 23.8 21.9444 23.8 20.4V8.50005C23.8 6.5663 22.2337 5.00005 20.3 5.00005ZM11.2 19H8.4V17.6H11.2V19ZM9.8 13.75C8.83313 13.75 8.05 12.9669 8.05 12C8.05 11.0332 8.83313 10.25 9.8 10.25C10.7669 10.25 11.55 11.0332 11.55 12C11.55 12.9669 10.7669 13.75 9.8 13.75ZM15.4 19H12.6V17.6H15.4V19ZM19.6 19H16.8V17.6H19.6V19ZM18.2 13.75C17.2331 13.75 16.45 12.9669 16.45 12C16.45 11.0332 17.2331 10.25 18.2 10.25C19.1669 10.25 19.95 11.0332 19.95 12C19.95 12.9669 19.1669 13.75 18.2 13.75ZM26.6 10.6H25.2V19H26.6C27.3744 19 28 18.3744 28 17.6V12C28 11.2257 27.3744 10.6 26.6 10.6Z" fill="#21B2B6"/>
</svg>
