<svg width="28" height="24" viewBox="0 0 28 24" fill="none" xmlns="http://www.w3.org/2000/svg">
<path d="M9.8 12C12.8931 12 15.4 9.49317 15.4 6.40005C15.4 3.30692 12.8931 0.800049 9.8 0.800049C6.70687 0.800049 4.2 3.30692 4.2 6.40005C4.2 9.49317 6.70687 12 9.8 12ZM13.72 13.4H12.9894C12.0181 13.8463 10.9375 14.1 9.8 14.1C8.6625 14.1 7.58625 13.8463 6.61063 13.4H5.88C2.63375 13.4 0 16.0338 0 19.28V21.1C0 22.2594 0.940625 23.2 2.1 23.2H17.5C18.6594 23.2 19.6 22.2594 19.6 21.1V19.28C19.6 16.0338 16.9662 13.4 13.72 13.4ZM27.8512 7.78255L26.635 6.55317C26.4337 6.34755 26.1056 6.34755 25.9 6.5488L21.315 11.0988L19.3244 9.09505C19.1231 8.88942 18.795 8.88942 18.5894 9.09067L17.36 10.3113C17.1544 10.5125 17.1544 10.8407 17.3556 11.0463L20.93 14.6469C21.1312 14.8525 21.4594 14.8525 21.665 14.6513L27.8469 8.51755C28.0481 8.31192 28.0525 7.9838 27.8512 7.78255Z" fill="#21B2B6"/>
</svg>
