<svg width="28" height="22" viewBox="0 0 28 22" fill="none" xmlns="http://www.w3.org/2000/svg">
<path d="M20.2222 7.88886C20.2222 3.59164 15.6965 0.111084 10.1111 0.111084C4.52569 0.111084 0 3.59164 0 7.88886C0 9.55622 0.685417 11.0923 1.84722 12.3611C1.19583 13.8291 0.121528 14.9958 0.106944 15.0104C0 15.1222 -0.0291667 15.2875 0.0340278 15.4333C0.0972222 15.5791 0.233333 15.6666 0.388889 15.6666C2.16806 15.6666 3.64097 15.0687 4.70069 14.4514C6.26597 15.2146 8.11806 15.6666 10.1111 15.6666C15.6965 15.6666 20.2222 12.1861 20.2222 7.88886ZM26.1528 18.5833C27.3146 17.3194 28 15.7784 28 14.1111C28 10.859 25.3993 8.07358 21.7146 6.91178C21.7583 7.23261 21.7778 7.55831 21.7778 7.88886C21.7778 13.0368 16.5424 17.2222 10.1111 17.2222C9.58611 17.2222 9.0757 17.1833 8.57014 17.1298C10.1014 19.925 13.6986 21.8889 17.8889 21.8889C19.8819 21.8889 21.734 21.4416 23.2993 20.6736C24.359 21.2909 25.8319 21.8889 27.6111 21.8889C27.7667 21.8889 27.9076 21.7965 27.966 21.6555C28.0292 21.5146 28 21.3493 27.8931 21.2326C27.8785 21.218 26.8042 20.0562 26.1528 18.5833Z" fill="#21B2B6"/>
</svg>
